<svg width="80" height="80" viewBox="0 0 80 80" fill="none" xmlns="http://www.w3.org/2000/svg">
<circle cx="40.0009" cy="39.9999" r="34.9091" fill="#30CEDF"/>
<path d="M28.3633 39.6364H52.3633" stroke="black" stroke-width="3" stroke-linecap="round" stroke-linejoin="round"/>
<path d="M40.3633 27.6364L52.3633 39.6364L40.3633 51.6364" stroke="black" stroke-width="3" stroke-linecap="round" stroke-linejoin="round"/>
<path d="M79.272 40.0001C79.272 61.6898 61.689 79.2728 39.9993 79.2728C18.3096 79.2728 0.726562 61.6898 0.726562 40.0001C0.726562 18.3104 18.3096 0.727356 39.9993 0.727356C61.689 0.727356 79.272 18.3104 79.272 40.0001ZM2.4902 40.0001C2.4902 60.7158 19.2836 77.5092 39.9993 77.5092C60.715 77.5092 77.5084 60.7158 77.5084 40.0001C77.5084 19.2844 60.715 2.491 39.9993 2.491C19.2836 2.491 2.4902 19.2844 2.4902 40.0001Z" fill="#E4E4E4"/>
<path d="M78.1209 43.9479C79.0412 44.0432 79.8681 43.3745 79.9248 42.451C80.2332 37.4276 79.5911 32.3859 78.0268 27.5917C76.289 22.2662 73.4521 17.3651 69.6996 13.2057C65.9472 9.04639 61.3629 5.72161 56.2437 3.44673C51.6354 1.39885 46.6861 0.242898 41.6575 0.0343547C40.7331 -0.00398177 39.9831 0.750019 39.9835 1.67521C39.9839 2.6004 40.7346 3.3461 41.6589 3.38797C46.218 3.59454 50.7036 4.65113 54.8831 6.50844C59.5735 8.59278 63.7738 11.6391 67.212 15.45C70.6501 19.261 73.2495 23.7516 74.8416 28.6311C76.2604 32.9791 76.8513 37.5494 76.5891 42.1057C76.5359 43.0293 77.2006 43.8526 78.1209 43.9479Z" fill="#212426"/>
</svg>
