<svg width="275" height="251" viewBox="0 0 275 251" fill="none" xmlns="http://www.w3.org/2000/svg">
<path d="M3.67016 108.961C8.38288 96.769 17.6925 87.0103 30.3022 79.919C52.095 67.6683 71.0843 51.2044 86.1022 31.5401C101.051 11.9608 121.019 0 142.956 0C176.191 0 204.904 27.4573 218.495 67.2759C227.856 94.617 241.274 120.476 258.325 144.031C273.644 165.238 279.214 187.682 271.641 207.241C255.077 250.125 181.65 262.881 107.648 235.748C33.6457 208.614 -12.9054 151.844 3.67016 108.961V108.961Z" fill="#3DE8CF" fill-opacity="0.5"/>
<path d="M118.51 167.528C118.51 167.528 100.015 164.277 93.655 166.778C87.2952 169.279 101.318 169 102.533 169.976C103.749 170.951 104.487 183.591 119.323 179.667" fill="#409DE2"/>
<path d="M176.561 164.866C176.561 164.866 149.639 181.981 117.255 179.97C117.255 179.97 115.029 167.426 117.255 166.876C117.255 166.876 150.499 156.869 161.383 134.033" fill="#CCF2EA"/>
<path d="M274.628 191.268L271.857 192.168C271.857 192.168 274.573 185.44 267.622 182.796C261.459 180.452 263.804 194.049 264.415 197.176C263.914 195.007 261.758 187.919 254.923 187.169C247.669 186.371 253.432 200.398 254.691 203.286C253.696 201.236 249.142 193.538 234.908 188.06C218.359 181.682 229.903 211.668 229.903 211.668L250.937 232.251C260.391 225.625 267.437 217.206 271.334 207.12C273.289 202.04 274.401 196.689 274.628 191.268V191.268Z" fill="#152272"/>
<path d="M118.685 142.758C118.685 142.758 101.25 133.676 94.0536 134.175C86.8572 134.674 100.981 138.799 101.87 140.175C102.758 141.551 99.3019 154.42 115.475 155.17" fill="#409DE2"/>
<path d="M150.843 73.0306L150.842 73.0302L150.265 72.6961C150.265 72.6959 150.265 72.6956 150.264 72.6954C149.986 72.5321 149.782 72.2785 149.685 71.9845C149.587 71.6905 149.603 71.3724 149.729 71.088L149.729 71.0879L155.77 57.4213L155.775 57.4097L155.78 57.3979C156.79 54.816 159.033 52.7912 161.467 51.5964C162.68 51.0012 163.921 50.6222 165.049 50.4815C166.183 50.3399 167.164 50.4438 167.887 50.768L167.888 50.7682C168.256 50.9328 168.656 51.2862 169.08 51.8487C169.5 52.4045 169.912 53.121 170.319 53.9497C171.019 55.3739 171.674 57.0655 172.321 58.7343C172.428 59.0119 172.536 59.2888 172.643 59.5638C173.383 61.461 174.129 63.2945 174.914 64.4719C175.301 65.0522 175.755 65.5658 176.303 65.801C176.591 65.9251 176.906 65.9716 177.233 65.9077C177.553 65.8449 177.845 65.6835 178.107 65.458L178.107 65.4577C179.058 64.6376 180.091 64.3323 180.993 64.4305C181.889 64.5281 182.71 65.0287 183.255 65.9316C183.797 66.8315 184.212 68.1577 184.521 69.6898C184.827 71.2105 185.018 72.8849 185.136 74.4483C185.254 76.0101 185.298 77.4512 185.313 78.5022C185.32 79.0275 185.32 79.4546 185.318 79.7498C185.317 79.8974 185.316 80.012 185.315 80.0893L185.313 80.1769L185.313 80.1987L185.313 80.2039L185.313 80.2051L185.313 80.2053L185.311 80.3124L185.346 80.4134L185.634 81.2259C186.517 83.8782 188.264 86.1744 190.605 87.7675L190.607 87.7685C191.014 88.0436 191.347 88.407 191.581 88.8284L191.585 88.8356L191.589 88.8426C192.351 90.1286 192.842 91.5491 193.033 93.0207C193.224 94.4923 193.111 95.9863 192.702 97.4154C192.293 98.8446 191.594 100.181 190.647 101.345C189.7 102.51 188.523 103.48 187.184 104.197L187.182 104.199C184.528 105.64 181.395 105.998 178.469 105.192C175.547 104.388 173.076 102.49 171.592 99.9193C171.471 99.6933 171.397 99.4471 171.374 99.1945L171.374 99.1872L171.373 99.1799C170.81 94.3738 169.181 89.7555 166.896 85.4912L166.742 85.2043C166.622 84.8442 166.379 84.5379 166.057 84.335C165.716 84.1202 165.309 84.0346 164.911 84.0921L164.91 84.0921L159.253 84.9095C159.252 84.9096 159.252 84.9096 159.252 84.9096C158.05 85.08 156.827 84.8144 155.815 84.1656C154.804 83.517 154.076 82.5318 153.764 81.3998L153.201 81.5549L153.764 81.3988L151.781 74.2444C151.781 74.2441 151.781 74.2437 151.781 74.2434C151.641 73.7315 151.302 73.2976 150.843 73.0306Z" fill="white" stroke="black" stroke-width="1.16891"/>
<path d="M155.248 57.185C157.402 51.6783 164.728 48.7064 168.139 50.2346C172.119 52.0138 174.455 67.8403 177.738 65.015C179.851 63.1936 182.497 63.5235 183.767 65.6297C186.147 69.5772 185.91 80.2184 185.91 80.2184L186.199 81.036C187.04 83.567 188.707 85.761 190.947 87.2843C191.429 87.6102 191.825 88.0419 192.104 88.5447C192.907 89.8985 193.424 91.3946 193.625 92.9455C193.826 94.4963 193.708 96.0707 193.276 97.5764C192.845 99.082 192.109 100.489 191.113 101.714C190.116 102.939 188.879 103.959 187.473 104.712C184.685 106.229 181.393 106.607 178.32 105.761C175.247 104.916 172.644 102.917 171.083 100.204C170.922 99.9069 170.824 99.582 170.793 99.2479C170.24 94.5279 168.639 89.9798 166.381 85.7673L166.202 85.4318C166.13 85.1837 165.968 84.9695 165.746 84.8293C165.524 84.6892 165.257 84.6328 164.995 84.6705L159.335 85.4882C157.996 85.6825 156.629 85.3907 155.496 84.6682C154.362 83.9456 153.54 82.8427 153.187 81.569L151.204 74.4128C151.105 74.0513 150.865 73.7417 150.535 73.55L149.956 73.2145C149.557 72.9806 149.259 72.6138 149.116 72.1819C148.973 71.75 148.996 71.2824 149.181 70.8657L149.684 69.7379" stroke="white" stroke-width="1.172" stroke-linecap="round" stroke-linejoin="round"/>
<path d="M17.6177 60.4128C27.3477 60.4128 35.2354 52.73 35.2354 43.2527C35.2354 33.7754 27.3477 26.0925 17.6177 26.0925C7.88771 26.0925 0 33.7754 0 43.2527C0 52.73 7.88771 60.4128 17.6177 60.4128Z" fill="#3DE8CF"/>
<path d="M55.4659 40.918C59.669 40.918 63.0763 37.5992 63.0763 33.5053C63.0763 29.4113 59.669 26.0925 55.4659 26.0925C51.2628 26.0925 47.8555 29.4113 47.8555 33.5053C47.8555 37.5992 51.2628 40.918 55.4659 40.918Z" fill="#3DE8CF"/>
<path d="M39.8188 21.5306C42.3496 21.5306 44.4012 19.5323 44.4012 17.0672C44.4012 14.6021 42.3496 12.6038 39.8188 12.6038C37.288 12.6038 35.2363 14.6021 35.2363 17.0672C35.2363 19.5323 37.288 21.5306 39.8188 21.5306Z" fill="#3DE8CF"/>
<path d="M82.4552 91.9495H4.3914C1.96609 91.9495 0 93.8645 0 96.2268V141.293C0 143.655 1.96609 145.57 4.3914 145.57H82.4552C84.8805 145.57 86.8466 143.655 86.8466 141.293V96.2268C86.8466 93.8645 84.8805 91.9495 82.4552 91.9495Z" fill="#CCF2EA"/>
<path d="M0 103.21H86.8466V115.91H0V103.21Z" fill="white"/>
<path d="M118.617 45.929H40.5535C38.1282 45.929 36.1621 47.844 36.1621 50.2063V95.2721C36.1621 97.6344 38.1282 99.5495 40.5535 99.5495H118.617C121.043 99.5495 123.009 97.6344 123.009 95.2721V50.2063C123.009 47.844 121.043 45.929 118.617 45.929Z" fill="#152272"/>
<path d="M90.4761 75.4262C90.4752 73.9888 90.7914 72.5679 91.4032 71.2598C92.015 69.9517 92.9081 68.7869 94.0222 67.8443C92.5281 66.5758 90.6907 65.753 88.7295 65.4742C86.7682 65.1953 84.766 65.4721 82.9619 66.2715C81.1578 67.071 79.6281 68.3593 78.5553 69.9826C77.4825 71.6059 76.9121 73.4957 76.9121 75.4262C76.9121 77.3568 77.4825 79.2465 78.5553 80.8698C79.6281 82.4932 81.1578 83.7815 82.9619 84.5809C84.766 85.3803 86.7682 85.6571 88.7295 85.3783C90.6907 85.0994 92.5281 84.2766 94.0222 83.0081C92.9081 82.0655 92.015 80.9007 91.4032 79.5926C90.7914 78.2845 90.4752 76.8636 90.4761 75.4262V75.4262Z" fill="#3DE8CF"/>
<path d="M100.8 65.3687C98.306 65.3663 95.8959 66.246 94.0176 67.8443C95.13 68.7881 96.0219 69.9532 96.633 71.2611C97.2442 72.5689 97.5604 73.9892 97.5604 75.4262C97.5604 76.8632 97.2442 78.2835 96.633 79.5913C96.0219 80.8992 95.13 82.0643 94.0176 83.0081C95.2752 84.0758 96.7796 84.8307 98.4022 85.2084C100.025 85.586 101.717 85.5751 103.334 85.1766C104.952 84.7781 106.446 84.0038 107.689 82.9201C108.932 81.8363 109.887 80.4754 110.472 78.9537C111.057 77.432 111.255 75.7949 111.048 74.1824C110.842 72.57 110.238 71.0302 109.287 69.695C108.337 68.3597 107.068 67.2686 105.59 66.5152C104.112 65.7618 102.468 65.3684 100.8 65.3687V65.3687Z" fill="#409DE2"/>
<path d="M97.5578 75.4225C97.5587 73.9854 97.2428 72.5648 96.6316 71.2567C96.0203 69.9487 95.1279 68.7837 94.0146 67.8406C92.9013 68.7839 92.0087 69.9488 91.397 71.2568C90.7853 72.5647 90.4688 73.9852 90.4688 75.4225C90.4688 76.8598 90.7853 78.2803 91.397 79.5883C92.0087 80.8962 92.9013 82.0611 94.0146 83.0044C95.1279 82.0613 96.0203 80.8963 96.6316 79.5883C97.2428 78.2803 97.5587 76.8597 97.5578 75.4225V75.4225Z" fill="#CCF2EA"/>
<path d="M30.4019 134.27C31.5418 134.27 32.4659 133.37 32.4659 132.259C32.4659 131.149 31.5418 130.249 30.4019 130.249C29.262 130.249 28.3379 131.149 28.3379 132.259C28.3379 133.37 29.262 134.27 30.4019 134.27Z" fill="#CCF2EA"/>
<path d="M38.1675 134.27C39.3074 134.27 40.2315 133.37 40.2315 132.259C40.2315 131.149 39.3074 130.249 38.1675 130.249C37.0276 130.249 36.1035 131.149 36.1035 132.259C36.1035 133.37 37.0276 134.27 38.1675 134.27Z" fill="#CCF2EA"/>
<path d="M45.939 134.27C47.0789 134.27 48.003 133.37 48.003 132.259C48.003 131.149 47.0789 130.249 45.939 130.249C44.7991 130.249 43.875 131.149 43.875 132.259C43.875 133.37 44.7991 134.27 45.939 134.27Z" fill="#CCF2EA"/>
<path d="M53.7085 134.27C54.8484 134.27 55.7725 133.37 55.7725 132.259C55.7725 131.149 54.8484 130.249 53.7085 130.249C52.5686 130.249 51.6445 131.149 51.6445 132.259C51.6445 133.37 52.5686 134.27 53.7085 134.27Z" fill="#CCF2EA"/>
<path d="M61.4761 134.27C62.616 134.27 63.5401 133.37 63.5401 132.259C63.5401 131.149 62.616 130.249 61.4761 130.249C60.3362 130.249 59.4121 131.149 59.4121 132.259C59.4121 133.37 60.3362 134.27 61.4761 134.27Z" fill="#CCF2EA"/>
<path d="M69.2456 134.27C70.3855 134.27 71.3096 133.37 71.3096 132.259C71.3096 131.149 70.3855 130.249 69.2456 130.249C68.1057 130.249 67.1816 131.149 67.1816 132.259C67.1816 133.37 68.1057 134.27 69.2456 134.27Z" fill="#CCF2EA"/>
<path d="M77.0152 134.27C78.1551 134.27 79.0791 133.37 79.0791 132.259C79.0791 131.149 78.1551 130.249 77.0152 130.249C75.8753 130.249 74.9512 131.149 74.9512 132.259C74.9512 133.37 75.8753 134.27 77.0152 134.27Z" fill="#CCF2EA"/>
<path d="M84.7827 134.27C85.9226 134.27 86.8467 133.37 86.8467 132.259C86.8467 131.149 85.9226 130.249 84.7827 130.249C83.6428 130.249 82.7188 131.149 82.7188 132.259C82.7188 133.37 83.6428 134.27 84.7827 134.27Z" fill="#CCF2EA"/>
<path d="M34.2847 140.831C35.4246 140.831 36.3487 139.931 36.3487 138.821C36.3487 137.71 35.4246 136.81 34.2847 136.81C33.1448 136.81 32.2207 137.71 32.2207 138.821C32.2207 139.931 33.1448 140.831 34.2847 140.831Z" fill="#CCF2EA"/>
<path d="M42.0542 140.831C43.1941 140.831 44.1182 139.931 44.1182 138.821C44.1182 137.71 43.1941 136.81 42.0542 136.81C40.9143 136.81 39.9902 137.71 39.9902 138.821C39.9902 139.931 40.9143 140.831 42.0542 140.831Z" fill="#CCF2EA"/>
<path d="M49.8218 140.831C50.9617 140.831 51.8858 139.931 51.8858 138.821C51.8858 137.71 50.9617 136.81 49.8218 136.81C48.6819 136.81 47.7578 137.71 47.7578 138.821C47.7578 139.931 48.6819 140.831 49.8218 140.831Z" fill="#CCF2EA"/>
<path d="M57.5933 140.831C58.7332 140.831 59.6573 139.931 59.6573 138.821C59.6573 137.71 58.7332 136.81 57.5933 136.81C56.4534 136.81 55.5293 137.71 55.5293 138.821C55.5293 139.931 56.4534 140.831 57.5933 140.831Z" fill="#CCF2EA"/>
<path d="M65.3628 140.831C66.5027 140.831 67.4268 139.931 67.4268 138.821C67.4268 137.71 66.5027 136.81 65.3628 136.81C64.2229 136.81 63.2988 137.71 63.2988 138.821C63.2988 139.931 64.2229 140.831 65.3628 140.831Z" fill="#CCF2EA"/>
<path d="M73.1323 140.831C74.2723 140.831 75.1963 139.931 75.1963 138.821C75.1963 137.71 74.2723 136.81 73.1323 136.81C71.9924 136.81 71.0684 137.71 71.0684 138.821C71.0684 139.931 71.9924 140.831 73.1323 140.831Z" fill="#CCF2EA"/>
<path d="M80.898 140.831C82.0379 140.831 82.962 139.931 82.962 138.821C82.962 137.71 82.0379 136.81 80.898 136.81C79.7581 136.81 78.834 137.71 78.834 138.821C78.834 139.931 79.7581 140.831 80.898 140.831Z" fill="#CCF2EA"/>
<path d="M30.4019 147.362C31.5418 147.362 32.4659 146.462 32.4659 145.351C32.4659 144.241 31.5418 143.341 30.4019 143.341C29.262 143.341 28.3379 144.241 28.3379 145.351C28.3379 146.462 29.262 147.362 30.4019 147.362Z" fill="#CCF2EA"/>
<path d="M38.1675 147.362C39.3074 147.362 40.2315 146.462 40.2315 145.351C40.2315 144.241 39.3074 143.341 38.1675 143.341C37.0276 143.341 36.1035 144.241 36.1035 145.351C36.1035 146.462 37.0276 147.362 38.1675 147.362Z" fill="#CCF2EA"/>
<path d="M45.939 147.362C47.0789 147.362 48.003 146.462 48.003 145.351C48.003 144.241 47.0789 143.341 45.939 143.341C44.7991 143.341 43.875 144.241 43.875 145.351C43.875 146.462 44.7991 147.362 45.939 147.362Z" fill="#CCF2EA"/>
<path d="M53.7085 147.362C54.8484 147.362 55.7725 146.462 55.7725 145.351C55.7725 144.241 54.8484 143.341 53.7085 143.341C52.5686 143.341 51.6445 144.241 51.6445 145.351C51.6445 146.462 52.5686 147.362 53.7085 147.362Z" fill="#CCF2EA"/>
<path d="M61.4761 147.362C62.616 147.362 63.5401 146.462 63.5401 145.351C63.5401 144.241 62.616 143.341 61.4761 143.341C60.3362 143.341 59.4121 144.241 59.4121 145.351C59.4121 146.462 60.3362 147.362 61.4761 147.362Z" fill="#CCF2EA"/>
<path d="M69.2456 147.362C70.3855 147.362 71.3096 146.462 71.3096 145.351C71.3096 144.241 70.3855 143.341 69.2456 143.341C68.1057 143.341 67.1816 144.241 67.1816 145.351C67.1816 146.462 68.1057 147.362 69.2456 147.362Z" fill="#CCF2EA"/>
<path d="M77.0152 147.362C78.1551 147.362 79.0791 146.462 79.0791 145.351C79.0791 144.241 78.1551 143.341 77.0152 143.341C75.8753 143.341 74.9512 144.241 74.9512 145.351C74.9512 146.462 75.8753 147.362 77.0152 147.362Z" fill="#CCF2EA"/>
<path d="M84.7827 147.362C85.9226 147.362 86.8467 146.462 86.8467 145.351C86.8467 144.241 85.9226 143.341 84.7827 143.341C83.6428 143.341 82.7188 144.241 82.7188 145.351C82.7188 146.462 83.6428 147.362 84.7827 147.362Z" fill="#CCF2EA"/>
<path d="M34.2847 153.923C35.4246 153.923 36.3487 153.023 36.3487 151.913C36.3487 150.802 35.4246 149.902 34.2847 149.902C33.1448 149.902 32.2207 150.802 32.2207 151.913C32.2207 153.023 33.1448 153.923 34.2847 153.923Z" fill="#CCF2EA"/>
<path d="M42.0542 153.923C43.1941 153.923 44.1182 153.023 44.1182 151.913C44.1182 150.802 43.1941 149.902 42.0542 149.902C40.9143 149.902 39.9902 150.802 39.9902 151.913C39.9902 153.023 40.9143 153.923 42.0542 153.923Z" fill="#CCF2EA"/>
<path d="M49.8218 153.923C50.9617 153.923 51.8858 153.023 51.8858 151.913C51.8858 150.802 50.9617 149.902 49.8218 149.902C48.6819 149.902 47.7578 150.802 47.7578 151.913C47.7578 153.023 48.6819 153.923 49.8218 153.923Z" fill="#CCF2EA"/>
<path d="M57.5933 153.923C58.7332 153.923 59.6573 153.023 59.6573 151.913C59.6573 150.802 58.7332 149.902 57.5933 149.902C56.4534 149.902 55.5293 150.802 55.5293 151.913C55.5293 153.023 56.4534 153.923 57.5933 153.923Z" fill="#CCF2EA"/>
<path d="M65.3628 153.923C66.5027 153.923 67.4268 153.023 67.4268 151.913C67.4268 150.802 66.5027 149.902 65.3628 149.902C64.2229 149.902 63.2988 150.802 63.2988 151.913C63.2988 153.023 64.2229 153.923 65.3628 153.923Z" fill="#CCF2EA"/>
<path d="M73.1323 153.923C74.2723 153.923 75.1963 153.023 75.1963 151.913C75.1963 150.802 74.2723 149.902 73.1323 149.902C71.9924 149.902 71.0684 150.802 71.0684 151.913C71.0684 153.023 71.9924 153.923 73.1323 153.923Z" fill="#CCF2EA"/>
<path d="M80.898 153.923C82.0379 153.923 82.962 153.023 82.962 151.913C82.962 150.802 82.0379 149.902 80.898 149.902C79.7581 149.902 78.834 150.802 78.834 151.913C78.834 153.023 79.7581 153.923 80.898 153.923Z" fill="#CCF2EA"/>
<path d="M30.4019 160.454C31.5418 160.454 32.4659 159.554 32.4659 158.443C32.4659 157.333 31.5418 156.433 30.4019 156.433C29.262 156.433 28.3379 157.333 28.3379 158.443C28.3379 159.554 29.262 160.454 30.4019 160.454Z" fill="#CCF2EA"/>
<path d="M38.1675 160.454C39.3074 160.454 40.2315 159.554 40.2315 158.443C40.2315 157.333 39.3074 156.433 38.1675 156.433C37.0276 156.433 36.1035 157.333 36.1035 158.443C36.1035 159.554 37.0276 160.454 38.1675 160.454Z" fill="#CCF2EA"/>
<path d="M45.939 160.454C47.0789 160.454 48.003 159.554 48.003 158.443C48.003 157.333 47.0789 156.433 45.939 156.433C44.7991 156.433 43.875 157.333 43.875 158.443C43.875 159.554 44.7991 160.454 45.939 160.454Z" fill="#CCF2EA"/>
<path d="M53.7085 160.454C54.8484 160.454 55.7725 159.554 55.7725 158.443C55.7725 157.333 54.8484 156.433 53.7085 156.433C52.5686 156.433 51.6445 157.333 51.6445 158.443C51.6445 159.554 52.5686 160.454 53.7085 160.454Z" fill="#CCF2EA"/>
<path d="M61.4761 160.454C62.616 160.454 63.5401 159.554 63.5401 158.443C63.5401 157.333 62.616 156.433 61.4761 156.433C60.3362 156.433 59.4121 157.333 59.4121 158.443C59.4121 159.554 60.3362 160.454 61.4761 160.454Z" fill="#CCF2EA"/>
<path d="M69.2456 160.454C70.3855 160.454 71.3096 159.554 71.3096 158.443C71.3096 157.333 70.3855 156.433 69.2456 156.433C68.1057 156.433 67.1816 157.333 67.1816 158.443C67.1816 159.554 68.1057 160.454 69.2456 160.454Z" fill="#CCF2EA"/>
<path d="M77.0152 160.454C78.1551 160.454 79.0791 159.554 79.0791 158.443C79.0791 157.333 78.1551 156.433 77.0152 156.433C75.8753 156.433 74.9512 157.333 74.9512 158.443C74.9512 159.554 75.8753 160.454 77.0152 160.454Z" fill="#CCF2EA"/>
<path d="M84.7827 160.454C85.9226 160.454 86.8467 159.554 86.8467 158.443C86.8467 157.333 85.9226 156.433 84.7827 156.433C83.6428 156.433 82.7188 157.333 82.7188 158.443C82.7188 159.554 83.6428 160.454 84.7827 160.454Z" fill="#CCF2EA"/>
<path d="M34.2847 167.015C35.4246 167.015 36.3487 166.115 36.3487 165.005C36.3487 163.894 35.4246 162.994 34.2847 162.994C33.1448 162.994 32.2207 163.894 32.2207 165.005C32.2207 166.115 33.1448 167.015 34.2847 167.015Z" fill="#CCF2EA"/>
<path d="M42.0542 167.015C43.1941 167.015 44.1182 166.115 44.1182 165.005C44.1182 163.894 43.1941 162.994 42.0542 162.994C40.9143 162.994 39.9902 163.894 39.9902 165.005C39.9902 166.115 40.9143 167.015 42.0542 167.015Z" fill="#CCF2EA"/>
<path d="M49.8218 167.015C50.9617 167.015 51.8858 166.115 51.8858 165.005C51.8858 163.894 50.9617 162.994 49.8218 162.994C48.6819 162.994 47.7578 163.894 47.7578 165.005C47.7578 166.115 48.6819 167.015 49.8218 167.015Z" fill="#CCF2EA"/>
<path d="M57.5933 167.015C58.7332 167.015 59.6573 166.115 59.6573 165.005C59.6573 163.894 58.7332 162.994 57.5933 162.994C56.4534 162.994 55.5293 163.894 55.5293 165.005C55.5293 166.115 56.4534 167.015 57.5933 167.015Z" fill="#CCF2EA"/>
<path d="M65.3628 167.015C66.5027 167.015 67.4268 166.115 67.4268 165.005C67.4268 163.894 66.5027 162.994 65.3628 162.994C64.2229 162.994 63.2988 163.894 63.2988 165.005C63.2988 166.115 64.2229 167.015 65.3628 167.015Z" fill="#CCF2EA"/>
<path d="M73.1323 167.015C74.2723 167.015 75.1963 166.115 75.1963 165.005C75.1963 163.894 74.2723 162.994 73.1323 162.994C71.9924 162.994 71.0684 163.894 71.0684 165.005C71.0684 166.115 71.9924 167.015 73.1323 167.015Z" fill="#CCF2EA"/>
<path d="M80.898 167.015C82.0379 167.015 82.962 166.115 82.962 165.005C82.962 163.894 82.0379 162.994 80.898 162.994C79.7581 162.994 78.834 163.894 78.834 165.005C78.834 166.115 79.7581 167.015 80.898 167.015Z" fill="#CCF2EA"/>
<path d="M30.4019 173.546C31.5418 173.546 32.4659 172.646 32.4659 171.536C32.4659 170.425 31.5418 169.525 30.4019 169.525C29.262 169.525 28.3379 170.425 28.3379 171.536C28.3379 172.646 29.262 173.546 30.4019 173.546Z" fill="#CCF2EA"/>
<path d="M38.1675 173.546C39.3074 173.546 40.2315 172.646 40.2315 171.536C40.2315 170.425 39.3074 169.525 38.1675 169.525C37.0276 169.525 36.1035 170.425 36.1035 171.536C36.1035 172.646 37.0276 173.546 38.1675 173.546Z" fill="#CCF2EA"/>
<path d="M45.939 173.546C47.0789 173.546 48.003 172.646 48.003 171.536C48.003 170.425 47.0789 169.525 45.939 169.525C44.7991 169.525 43.875 170.425 43.875 171.536C43.875 172.646 44.7991 173.546 45.939 173.546Z" fill="#CCF2EA"/>
<path d="M53.7085 173.546C54.8484 173.546 55.7725 172.646 55.7725 171.536C55.7725 170.425 54.8484 169.525 53.7085 169.525C52.5686 169.525 51.6445 170.425 51.6445 171.536C51.6445 172.646 52.5686 173.546 53.7085 173.546Z" fill="#CCF2EA"/>
<path d="M61.4761 173.546C62.616 173.546 63.5401 172.646 63.5401 171.536C63.5401 170.425 62.616 169.525 61.4761 169.525C60.3362 169.525 59.4121 170.425 59.4121 171.536C59.4121 172.646 60.3362 173.546 61.4761 173.546Z" fill="#CCF2EA"/>
<path d="M69.2456 173.546C70.3855 173.546 71.3096 172.646 71.3096 171.536C71.3096 170.425 70.3855 169.525 69.2456 169.525C68.1057 169.525 67.1816 170.425 67.1816 171.536C67.1816 172.646 68.1057 173.546 69.2456 173.546Z" fill="#CCF2EA"/>
<path d="M77.0152 173.546C78.1551 173.546 79.0791 172.646 79.0791 171.536C79.0791 170.425 78.1551 169.525 77.0152 169.525C75.8753 169.525 74.9512 170.425 74.9512 171.536C74.9512 172.646 75.8753 173.546 77.0152 173.546Z" fill="#CCF2EA"/>
<path d="M84.7827 173.546C85.9226 173.546 86.8467 172.646 86.8467 171.536C86.8467 170.425 85.9226 169.525 84.7827 169.525C83.6428 169.525 82.7188 170.425 82.7188 171.536C82.7188 172.646 83.6428 173.546 84.7827 173.546Z" fill="#CCF2EA"/>
<path d="M34.2847 180.107C35.4246 180.107 36.3487 179.207 36.3487 178.097C36.3487 176.987 35.4246 176.086 34.2847 176.086C33.1448 176.086 32.2207 176.987 32.2207 178.097C32.2207 179.207 33.1448 180.107 34.2847 180.107Z" fill="#CCF2EA"/>
<path d="M42.0542 180.107C43.1941 180.107 44.1182 179.207 44.1182 178.097C44.1182 176.987 43.1941 176.086 42.0542 176.086C40.9143 176.086 39.9902 176.987 39.9902 178.097C39.9902 179.207 40.9143 180.107 42.0542 180.107Z" fill="#CCF2EA"/>
<path d="M49.8218 180.107C50.9617 180.107 51.8858 179.207 51.8858 178.097C51.8858 176.987 50.9617 176.086 49.8218 176.086C48.6819 176.086 47.7578 176.987 47.7578 178.097C47.7578 179.207 48.6819 180.107 49.8218 180.107Z" fill="#CCF2EA"/>
<path d="M57.5933 180.107C58.7332 180.107 59.6573 179.207 59.6573 178.097C59.6573 176.987 58.7332 176.086 57.5933 176.086C56.4534 176.086 55.5293 176.987 55.5293 178.097C55.5293 179.207 56.4534 180.107 57.5933 180.107Z" fill="#CCF2EA"/>
<path d="M65.3628 180.107C66.5027 180.107 67.4268 179.207 67.4268 178.097C67.4268 176.987 66.5027 176.086 65.3628 176.086C64.2229 176.086 63.2988 176.987 63.2988 178.097C63.2988 179.207 64.2229 180.107 65.3628 180.107Z" fill="#CCF2EA"/>
<path d="M73.1323 180.107C74.2723 180.107 75.1963 179.207 75.1963 178.097C75.1963 176.987 74.2723 176.086 73.1323 176.086C71.9924 176.086 71.0684 176.987 71.0684 178.097C71.0684 179.207 71.9924 180.107 73.1323 180.107Z" fill="#CCF2EA"/>
<path d="M80.898 180.107C82.0379 180.107 82.962 179.207 82.962 178.097C82.962 176.987 82.0379 176.086 80.898 176.086C79.7581 176.086 78.834 176.987 78.834 178.097C78.834 179.207 79.7581 180.107 80.898 180.107Z" fill="#CCF2EA"/>
<path d="M92.5309 14.6168H92.8551C92.9501 14.6189 93.0444 14.6002 93.1311 14.5622C93.2178 14.5241 93.2946 14.4676 93.3559 14.3969C95.1929 12.2661 97.499 10.5656 100.103 9.4214C102.707 8.27725 105.542 7.71885 108.398 7.78765C111.253 7.85644 114.056 8.55066 116.599 9.8188C119.142 11.0869 121.359 12.8964 123.085 15.1131C123.152 15.1988 123.24 15.2658 123.342 15.3074C123.444 15.349 123.555 15.3637 123.664 15.3499C124.1 15.3013 124.538 15.2768 124.976 15.2766C126.654 15.2776 128.311 15.6421 129.826 16.3439C131.342 17.0457 132.678 18.067 133.738 19.334C133.804 19.4142 133.889 19.4768 133.986 19.5163C134.084 19.5557 134.189 19.5706 134.294 19.5596C134.582 19.523 134.872 19.5051 135.162 19.506C136.438 19.5053 137.69 19.8446 138.782 20.4872C139.874 21.1299 140.765 22.0513 141.357 23.1518C141.536 23.4884 141.836 23.7492 142.2 23.8849L145.633 25.1481C145.768 25.1997 145.88 25.2953 145.95 25.4186C146.021 25.5419 146.045 25.6852 146.019 25.8241C145.993 25.9629 145.919 26.0886 145.808 26.1798C145.697 26.2709 145.558 26.3219 145.413 26.3238H81.1486C81.064 26.3236 80.9803 26.3066 80.9026 26.2739C80.8249 26.2412 80.7549 26.1935 80.6967 26.1336C80.6385 26.0738 80.5934 26.0031 80.5641 25.9257C80.5348 25.8484 80.5219 25.7661 80.5262 25.6838C80.6936 22.6933 82.0316 19.8792 84.2647 17.8205C86.4978 15.7618 89.4562 14.6153 92.5309 14.6168V14.6168Z" fill="white"/>
<path d="M123.086 15.1367C123.152 15.2224 123.241 15.2895 123.343 15.3311C123.444 15.3727 123.556 15.3873 123.665 15.3736C124.1 15.3249 124.538 15.3005 124.976 15.3003C126.654 15.3005 128.31 15.6642 129.826 16.365C131.341 17.0658 132.678 18.0861 133.739 19.352C133.804 19.4322 133.89 19.4948 133.987 19.5343C134.084 19.5737 134.19 19.5886 134.295 19.5776C134.583 19.541 134.873 19.5231 135.163 19.524" stroke="#152272" stroke-width="1.172" stroke-miterlimit="10"/>
<path d="M92.5352 14.6167H92.8594C92.9544 14.6188 93.0487 14.6001 93.1354 14.5621C93.222 14.524 93.2988 14.4675 93.3602 14.3968C95.1446 12.3232 97.3744 10.6561 99.8922 9.5132C102.41 8.37027 105.155 7.77931 107.933 7.78199" stroke="#152272" stroke-width="1.172" stroke-miterlimit="10"/>
<path d="M145.641 25.1465C145.776 25.1981 145.888 25.2938 145.958 25.4171C146.029 25.5404 146.053 25.6837 146.027 25.8225C146.001 25.9613 145.926 26.087 145.816 26.1782C145.705 26.2694 145.566 26.3203 145.421 26.3223H81.1564C81.0718 26.322 80.9881 26.305 80.9104 26.2723C80.8327 26.2396 80.7627 26.1919 80.7045 26.132C80.6463 26.0722 80.6012 26.0015 80.5719 25.9242C80.5426 25.8468 80.5297 25.7645 80.534 25.6822" stroke="#152272" stroke-width="1.172" stroke-miterlimit="10"/>
<path d="M261.259 144.377H260.996C260.918 144.379 260.841 144.364 260.77 144.333C260.699 144.303 260.636 144.257 260.585 144.2C259.085 142.459 257.202 141.069 255.075 140.134C252.948 139.199 250.633 138.742 248.3 138.799C245.967 138.855 243.678 139.422 241.601 140.458C239.524 141.494 237.713 142.972 236.303 144.783C236.249 144.853 236.177 144.908 236.094 144.942C236.011 144.976 235.921 144.988 235.832 144.978C234.289 144.801 232.725 145.005 231.285 145.573C229.845 146.141 228.575 147.053 227.593 148.226C227.54 148.292 227.471 148.343 227.392 148.376C227.313 148.408 227.227 148.419 227.141 148.409C225.988 148.27 224.818 148.477 223.787 149.001C222.756 149.525 221.914 150.343 221.372 151.345C221.227 151.62 220.982 151.834 220.686 151.945L217.881 152.974C217.769 153.015 217.675 153.093 217.616 153.194C217.556 153.295 217.536 153.414 217.557 153.528C217.578 153.643 217.641 153.747 217.733 153.821C217.825 153.896 217.941 153.936 218.061 153.936H270.552C270.621 153.936 270.689 153.922 270.753 153.896C270.817 153.869 270.874 153.831 270.922 153.782C270.969 153.733 271.006 153.675 271.03 153.612C271.054 153.549 271.065 153.482 271.061 153.414C270.924 150.973 269.831 148.676 268.008 146.995C266.185 145.314 263.77 144.377 261.259 144.377V144.377Z" fill="white"/>
<path d="M236.306 144.775C236.251 144.845 236.179 144.9 236.096 144.934C236.014 144.968 235.923 144.98 235.834 144.97C234.291 144.793 232.727 144.997 231.287 145.565C229.847 146.133 228.577 147.045 227.595 148.218C227.543 148.284 227.473 148.335 227.394 148.368C227.315 148.4 227.229 148.411 227.144 148.401C226.91 148.373 226.674 148.359 226.438 148.359" stroke="#152272" stroke-width="1.172" stroke-miterlimit="10"/>
<path d="M261.262 144.377H260.999C260.921 144.379 260.844 144.364 260.773 144.333C260.702 144.302 260.639 144.256 260.588 144.199C259.131 142.505 257.31 141.143 255.254 140.209C253.198 139.275 250.956 138.792 248.688 138.794" stroke="#152272" stroke-width="1.172" stroke-miterlimit="10"/>
<path d="M217.883 152.985C217.771 153.025 217.677 153.103 217.618 153.204C217.558 153.306 217.538 153.424 217.559 153.539C217.58 153.653 217.643 153.757 217.735 153.832C217.827 153.906 217.943 153.947 218.062 153.946H270.554C270.623 153.946 270.691 153.933 270.755 153.906C270.818 153.88 270.876 153.841 270.923 153.792C270.971 153.743 271.008 153.685 271.032 153.622C271.056 153.559 271.067 153.492 271.063 153.424" stroke="#152272" stroke-width="1.172" stroke-miterlimit="10"/>
<path d="M151.727 65.1428L154.066 59.8532L153.603 65.1428L167.116 66.1775C167.633 66.2167 168.123 66.4164 168.515 66.7473C168.907 67.0783 169.179 67.5229 169.292 68.0159L172.239 80.9523C172.349 81.4297 172.643 81.8475 173.061 82.1186C173.479 82.3897 173.988 82.4931 174.483 82.4072C179.135 81.6036 191.331 79.3057 195.997 76.6552C196.481 76.3788 196.861 75.9594 197.083 75.4579C197.306 74.9565 197.358 74.3991 197.233 73.8666C195.786 67.6071 189.171 44.3256 171.374 43.3528C150.801 42.225 143.804 61.1164 150.091 68.8167" fill="#152272"/>
<path d="M171.386 43.3528C150.812 42.225 143.816 61.1164 150.103 68.8167" stroke="white" stroke-width="1.172" stroke-linecap="round" stroke-linejoin="round"/>
<path d="M259.737 224.843L202.481 153.676C201.824 152.861 201.403 151.89 201.263 150.863C201.122 149.836 201.267 148.791 201.682 147.837C206.354 137.049 219.647 101.031 194.586 89.5358C192.902 88.7763 191.475 87.5631 190.476 86.0395L189.338 84.2716C189.096 83.8982 188.744 83.6049 188.327 83.4303C187.911 83.2557 187.45 83.2079 187.005 83.2932L175.249 85.5489C175.044 85.5888 174.849 85.6699 174.677 85.787C174.506 85.904 174.361 86.0545 174.252 86.2289C174.143 86.4033 174.073 86.5978 174.045 86.8001C174.017 87.0024 174.033 87.2081 174.091 87.4042L176.042 94.0359C176.248 94.7377 176.188 95.4881 175.874 96.1508C175.561 96.8135 175.013 97.3446 174.332 97.6478C172.534 98.4429 170.832 97.3038 170.377 95.4372C169.748 93.1029 168.894 90.8315 167.827 88.6532L162.906 88.9578C162.712 88.9698 162.523 89.027 162.356 89.1245C162.19 89.222 162.049 89.357 161.947 89.5182C161.845 89.6795 161.783 89.8622 161.768 90.0512C161.753 90.2401 161.785 90.4298 161.861 90.6044L163.69 94.7972C163.918 95.3199 164.008 95.8901 163.95 96.4553C163.892 97.0205 163.69 97.5625 163.36 98.0313C159.722 103.188 148.617 121.468 154.453 145.564C160.031 168.533 158.15 226.222 157.186 248.074C200.897 253.905 239.47 245.395 259.737 224.843V224.843Z" fill="white"/>
<path d="M194.589 89.5386C194.589 89.5386 209.893 93.5678 211.433 119.426C212.973 145.285 196.722 199.275 111.129 154.291C111.129 154.291 112.518 141.918 117.521 141.543C117.521 141.543 168.327 151.291 175.639 136.296C182.952 121.301 186.032 113.429 186.032 113.429" fill="white"/>
<path d="M211.433 119.446C212.97 145.313 196.722 199.294 111.129 154.31" stroke="#152272" stroke-width="1.172" stroke-linecap="round" stroke-linejoin="round"/>
<path d="M179.957 249.847C177.326 239.815 163.321 243.906 163.321 243.906C163.321 243.906 171.018 231.162 167.171 220.289C163.324 209.417 135.618 237.909 135.618 237.909C135.618 237.909 142.93 228.912 137.355 223.385C133.797 219.864 128.285 225.057 124.756 229.284C125.683 227.082 125.787 224.358 123.02 221.789C116.961 216.15 113.299 228.162 113.299 228.162C113.299 228.162 115.615 213.167 105.353 209.417C95.0907 205.667 101.494 222.164 101.494 222.164C101.494 222.164 103.677 224.42 102.585 223.292C101.494 222.164 84.4321 208.295 79.5978 220.292C79.2118 221.211 79.0388 222.202 79.0912 223.193C88.2198 227.932 97.6555 232.087 107.339 235.631C132.326 244.795 157.259 249.407 179.957 249.847V249.847Z" fill="#CCF2EA"/>
<path d="M79.5841 220.276C79.1981 221.195 79.0251 222.186 79.0775 223.177" stroke="#152272" stroke-width="1.172" stroke-linecap="round" stroke-linejoin="round"/>
<path d="M105.34 209.416C95.087 205.669 101.482 222.164 101.482 222.164C101.482 222.164 103.664 224.419 102.573 223.291" stroke="#152272" stroke-width="1.172" stroke-linecap="round" stroke-linejoin="round"/>
<path d="M123.006 221.782C116.947 216.143 113.285 228.154 113.285 228.154" stroke="#152272" stroke-width="1.172" stroke-linecap="round" stroke-linejoin="round"/>
<path d="M137.342 223.394C133.785 219.872 128.273 225.066 124.744 229.292" stroke="#152272" stroke-width="1.172" stroke-linecap="round" stroke-linejoin="round"/>
<path d="M167.168 220.277C163.318 209.405 135.615 237.897 135.615 237.897" stroke="#152272" stroke-width="1.172" stroke-linecap="round" stroke-linejoin="round"/>
<path d="M179.957 249.839C177.325 239.807 163.32 243.898 163.32 243.898" stroke="#152272" stroke-width="1.172" stroke-linecap="round" stroke-linejoin="round"/>
</svg>
